<?xml version="1.0" encoding="utf-8"?>
<!-- Generator: Adobe Illustrator 23.0.1, SVG Export Plug-In . SVG Version: 6.00 Build 0)  -->
<svg version="1.1" id="Layer_1" xmlns="http://www.w3.org/2000/svg" xmlns:xlink="http://www.w3.org/1999/xlink" x="0px" y="0px"
	 viewBox="0 0 123 61" style="enable-background:new 0 0 123 61;" xml:space="preserve">
<style type="text/css">
	.st0{display:none;fill:url(#SVGID_1_);}
	.st1{fill:#F1E293;}
	.st2{fill:#F39923;}
	.st3{fill:#F49223;}
	.st4{fill:#F3B31B;}
	.st5{fill:#F3C61E;}
	.st6{fill:#F8D40A;}
	.st7{fill:#F7DC04;}
	.st8{fill:#F8E200;}
	.st9{fill:#EFD663;}
	.st10{fill:#F49A23;}
	.st11{fill:#1798D5;}
	.st12{fill:#B6B7B7;}
	.st13{fill:#010101;}
	.st14{fill:#FFFFFF;}
	.st15{fill:#A7A6A6;}
	.st16{fill:#FFFFFF;stroke:#FFFFFF;stroke-width:0.1802;stroke-miterlimit:10;}
	.st17{fill:url(#SVGID_2_);}
	.st18{fill:url(#SVGID_3_);}
	.st19{fill:url(#SVGID_4_);}
	.st20{fill:url(#SVGID_5_);}
	.st21{opacity:0.2;fill:#010101;enable-background:new    ;}
	.st22{opacity:0.12;fill:#010101;enable-background:new    ;}
	.st23{opacity:0.25;fill:#FFFFFF;enable-background:new    ;}
</style>
<g>
	<g>
		<g>
			<g>
				<path class="st12" d="M100.82,14.86H22.18c-0.29,0-0.57,0-0.86,0c-0.24,0-0.48,0.01-0.72,0.01c-0.52,0.01-1.05,0.05-1.57,0.14
					c-0.52,0.09-1.01,0.25-1.49,0.49c-0.47,0.24-0.9,0.55-1.27,0.92c-0.37,0.37-0.68,0.8-0.92,1.27c-0.24,0.48-0.4,0.96-0.49,1.49
					c-0.09,0.52-0.13,1.04-0.14,1.57c-0.01,0.24-0.01,0.48-0.01,0.72c0,0.28,0,0.57,0,0.85v16.36c0,0.29,0,0.57,0,0.86
					c0,0.24,0,0.48,0.01,0.72c0.01,0.52,0.05,1.05,0.14,1.56c0.09,0.52,0.25,1.01,0.49,1.49c0.24,0.47,0.55,0.89,0.92,1.26
					c0.37,0.37,0.8,0.68,1.27,0.92c0.48,0.24,0.96,0.4,1.49,0.49c0.52,0.09,1.05,0.12,1.57,0.14c0.24,0.01,0.48,0.01,0.72,0.01
					c0.29,0,0.57,0,0.86,0h78.64c0.28,0,0.57,0,0.85,0c0.24,0,0.48,0,0.72-0.01c0.52-0.01,1.05-0.05,1.56-0.14
					c0.52-0.09,1.01-0.25,1.49-0.49c0.47-0.24,0.89-0.55,1.26-0.92c0.37-0.37,0.68-0.8,0.92-1.26c0.24-0.47,0.4-0.96,0.48-1.49
					c0.1-0.52,0.13-1.04,0.15-1.56c0-0.24,0-0.48,0-0.72c0.01-0.28,0.01-0.57,0.01-0.86V22.32c0-0.29,0-0.57-0.01-0.85
					c0-0.24,0-0.48,0-0.72c-0.02-0.52-0.05-1.05-0.15-1.57c-0.09-0.52-0.24-1.01-0.48-1.49c-0.24-0.47-0.55-0.9-0.92-1.27
					c-0.37-0.37-0.8-0.68-1.26-0.92c-0.48-0.24-0.97-0.4-1.49-0.49c-0.51-0.09-1.04-0.13-1.56-0.14c-0.24,0-0.48-0.01-0.72-0.01
					C101.39,14.86,101.11,14.86,100.82,14.86L100.82,14.86z"/>
				<path class="st13" d="M21.33,45.45c-0.24,0-0.47,0-0.71-0.01c-0.44-0.01-0.96-0.04-1.46-0.13c-0.48-0.09-0.9-0.23-1.3-0.43
					c-0.41-0.21-0.77-0.47-1.09-0.79c-0.32-0.32-0.59-0.68-0.8-1.09c-0.2-0.39-0.34-0.82-0.42-1.3c-0.1-0.53-0.12-1.06-0.13-1.47
					c0-0.16-0.01-0.71-0.01-0.71V21.47c0,0,0.01-0.54,0.01-0.7c0.01-0.41,0.03-0.94,0.13-1.46c0.08-0.48,0.22-0.9,0.42-1.3
					c0.21-0.41,0.47-0.78,0.79-1.09c0.32-0.32,0.69-0.59,1.1-0.8c0.4-0.2,0.82-0.34,1.29-0.43c0.53-0.09,1.06-0.12,1.47-0.13
					l0.71-0.01h80.34l0.71,0.01c0.4,0.01,0.93,0.03,1.45,0.13c0.47,0.08,0.9,0.22,1.31,0.43c0.4,0.21,0.77,0.47,1.09,0.79
					c0.32,0.32,0.59,0.69,0.8,1.1c0.2,0.4,0.34,0.82,0.42,1.29c0.09,0.49,0.12,1,0.14,1.48c0,0.22,0,0.46,0,0.7
					c0.01,0.29,0.01,0.57,0.01,0.85v16.36c0,0.28,0,0.56-0.01,0.84c0,0.25,0,0.49,0,0.73c-0.02,0.46-0.04,0.97-0.13,1.45
					c-0.08,0.48-0.22,0.9-0.42,1.31c-0.21,0.41-0.48,0.77-0.79,1.08c-0.32,0.33-0.69,0.59-1.09,0.8c-0.41,0.21-0.82,0.34-1.3,0.43
					c-0.5,0.09-1.02,0.12-1.46,0.13c-0.23,0.01-0.47,0.01-0.7,0.01l-0.85,0L21.33,45.45z"/>
			</g>
		</g>
		<g id="XMLID_14_">
			<g id="XMLID_15_">
				<g id="XMLID_16_">
					<path id="XMLID_18_" class="st14" d="M34.09,30.74c-0.02-2.15,1.76-3.2,1.84-3.25c-1.01-1.47-2.57-1.67-3.12-1.69
						c-1.31-0.14-2.59,0.79-3.25,0.79c-0.68,0-1.71-0.77-2.82-0.75c-1.43,0.02-2.76,0.85-3.5,2.13c-1.51,2.62-0.38,6.46,1.06,8.58
						c0.72,1.04,1.57,2.19,2.68,2.15c1.08-0.04,1.49-0.69,2.8-0.69c1.3,0,1.68,0.69,2.81,0.67c1.16-0.02,1.9-1.04,2.6-2.09
						c0.84-1.19,1.17-2.36,1.19-2.42C36.34,34.16,34.11,33.31,34.09,30.74z"/>
					<path id="XMLID_17_" class="st14" d="M31.95,24.41c0.58-0.73,0.98-1.72,0.87-2.73c-0.84,0.04-1.9,0.58-2.51,1.3
						c-0.54,0.63-1.02,1.66-0.89,2.63C30.37,25.68,31.35,25.13,31.95,24.41z"/>
				</g>
			</g>
			<g>
				<path class="st14" d="M47.8,36.08h-3.7l-0.89,2.62h-1.57l3.5-9.71h1.63l3.5,9.71h-1.59L47.8,36.08z M44.48,34.87h2.93
					l-1.45-4.26h-0.04L44.48,34.87z"/>
				<path class="st14" d="M57.85,35.17c0,2.2-1.18,3.61-2.95,3.61c-1.01,0-1.81-0.45-2.23-1.24h-0.03v3.51h-1.45v-9.42h1.41v1.18
					h0.03c0.4-0.76,1.26-1.25,2.25-1.25C56.66,31.55,57.85,32.97,57.85,35.17z M56.35,35.17c0-1.43-0.74-2.38-1.87-2.38
					c-1.11,0-1.86,0.96-1.86,2.38c0,1.43,0.75,2.38,1.86,2.38C55.61,37.55,56.35,36.61,56.35,35.17z"/>
				<path class="st14" d="M65.64,35.17c0,2.2-1.18,3.61-2.95,3.61c-1.01,0-1.81-0.45-2.23-1.24h-0.03v3.51h-1.45v-9.42h1.41v1.18
					h0.03c0.4-0.76,1.26-1.25,2.25-1.25C64.45,31.55,65.64,32.97,65.64,35.17z M64.14,35.17c0-1.43-0.74-2.38-1.87-2.38
					c-1.11,0-1.86,0.96-1.86,2.38c0,1.43,0.75,2.38,1.86,2.38C63.4,37.55,64.14,36.61,64.14,35.17z"/>
				<path class="st14" d="M70.79,36c0.11,0.96,1.04,1.59,2.32,1.59c1.22,0,2.11-0.63,2.11-1.5c0-0.75-0.53-1.2-1.79-1.51l-1.26-0.3
					c-1.78-0.43-2.61-1.26-2.61-2.62c0-1.67,1.46-2.83,3.53-2.83c2.05,0,3.46,1.15,3.5,2.83h-1.47c-0.09-0.97-0.89-1.55-2.06-1.55
					c-1.17,0-1.97,0.59-1.97,1.45c0,0.69,0.51,1.09,1.76,1.4l1.07,0.26c1.99,0.47,2.82,1.27,2.82,2.69c0,1.82-1.45,2.95-3.75,2.95
					c-2.15,0-3.61-1.11-3.7-2.87H70.79z"/>
				<path class="st14" d="M79.88,29.95v1.67h1.35v1.15h-1.35v3.9c0,0.61,0.27,0.89,0.86,0.89c0.15,0,0.38-0.02,0.48-0.03v1.14
					c-0.16,0.04-0.48,0.07-0.81,0.07c-1.43,0-1.99-0.54-1.99-1.91v-4.06h-1.03v-1.15h1.03v-1.67H79.88z"/>
				<path class="st14" d="M82.01,35.17c0-2.23,1.31-3.63,3.36-3.63c2.05,0,3.36,1.4,3.36,3.63c0,2.23-1.3,3.63-3.36,3.63
					C83.31,38.79,82.01,37.4,82.01,35.17z M87.24,35.17c0-1.53-0.7-2.43-1.88-2.43c-1.18,0-1.88,0.91-1.88,2.43
					c0,1.53,0.7,2.43,1.88,2.43C86.54,37.6,87.24,36.7,87.24,35.17z"/>
				<path class="st14" d="M89.92,31.63h1.39v1.2h0.03c0.22-0.8,0.87-1.28,1.7-1.28c0.21,0,0.38,0.03,0.5,0.05v1.36
					c-0.11-0.05-0.37-0.09-0.65-0.09c-0.94,0-1.51,0.63-1.51,1.63v4.2h-1.45V31.63z"/>
				<path class="st14" d="M100.24,36.63c-0.2,1.28-1.45,2.17-3.05,2.17c-2.06,0-3.34-1.38-3.34-3.59c0-2.22,1.28-3.66,3.28-3.66
					c1.96,0,3.19,1.35,3.19,3.49v0.5h-5v0.09c0,1.21,0.76,2,1.9,2c0.81,0,1.44-0.38,1.63-1H100.24z M95.33,34.51h3.54
					c-0.03-1.08-0.73-1.8-1.74-1.8C96.13,32.72,95.4,33.44,95.33,34.51z"/>
			</g>
		</g>
	</g>
	<g id="XMLID_13_">
		<g>
			<path class="st14" d="M44.3,21.69c1.38,0,2.19,0.85,2.19,2.32c0,1.49-0.81,2.35-2.19,2.35h-1.68v-4.66H44.3z M43.34,25.7h0.88
				c0.98,0,1.54-0.61,1.54-1.68c0-1.05-0.57-1.67-1.54-1.67h-0.88V25.7z"/>
			<path class="st14" d="M47.31,24.59c0-1.13,0.63-1.83,1.66-1.83c1.03,0,1.66,0.69,1.66,1.83c0,1.14-0.63,1.83-1.66,1.83
				C47.94,26.42,47.31,25.73,47.31,24.59z M49.92,24.59c0-0.76-0.34-1.21-0.94-1.21c-0.6,0-0.94,0.45-0.94,1.21
				c0,0.77,0.34,1.21,0.94,1.21C49.57,25.81,49.92,25.36,49.92,24.59z"/>
			<path class="st14" d="M55.04,26.35h-0.72l-0.73-2.59h-0.05l-0.72,2.59H52.1l-0.97-3.52h0.7l0.63,2.69h0.05l0.72-2.69h0.67
				l0.72,2.69h0.05l0.63-2.69h0.69L55.04,26.35z"/>
			<path class="st14" d="M56.83,22.83h0.67v0.56h0.05c0.17-0.39,0.52-0.63,1.05-0.63c0.79,0,1.22,0.47,1.22,1.31v2.28h-0.69v-2.1
				c0-0.57-0.25-0.85-0.76-0.85s-0.84,0.34-0.84,0.89v2.06h-0.69V22.83z"/>
			<path class="st14" d="M60.92,21.46h0.69v4.89h-0.69V21.46z"/>
			<path class="st14" d="M62.58,24.59c0-1.13,0.63-1.83,1.66-1.83c1.03,0,1.66,0.69,1.66,1.83c0,1.14-0.63,1.83-1.66,1.83
				C63.21,26.42,62.58,25.73,62.58,24.59z M65.19,24.59c0-0.76-0.34-1.21-0.94-1.21c-0.6,0-0.94,0.45-0.94,1.21
				c0,0.77,0.34,1.21,0.94,1.21C64.85,25.81,65.19,25.36,65.19,24.59z"/>
			<path class="st14" d="M66.64,25.36c0-0.63,0.47-1,1.31-1.05l0.95-0.05v-0.3c0-0.37-0.25-0.58-0.72-0.58
				c-0.39,0-0.66,0.14-0.73,0.39h-0.67c0.07-0.6,0.64-0.99,1.44-0.99c0.88,0,1.38,0.44,1.38,1.18v2.41h-0.67v-0.49h-0.05
				c-0.21,0.35-0.59,0.55-1.06,0.55C67.13,26.41,66.64,26,66.64,25.36z M68.9,25.06v-0.29l-0.86,0.05c-0.48,0.03-0.7,0.2-0.7,0.51
				c0,0.32,0.27,0.5,0.65,0.5C68.51,25.83,68.9,25.49,68.9,25.06z"/>
			<path class="st14" d="M70.5,24.59c0-1.11,0.57-1.82,1.46-1.82c0.48,0,0.89,0.23,1.08,0.62h0.05v-1.93h0.69v4.89h-0.67V25.8h-0.05
				c-0.21,0.38-0.62,0.61-1.11,0.61C71.07,26.41,70.5,25.71,70.5,24.59z M71.22,24.59c0,0.75,0.35,1.2,0.94,1.2
				c0.59,0,0.95-0.46,0.95-1.19c0-0.73-0.37-1.2-0.95-1.2C71.58,23.4,71.22,23.85,71.22,24.59z"/>
			<path class="st14" d="M76.66,24.59c0-1.13,0.63-1.83,1.66-1.83c1.03,0,1.66,0.69,1.66,1.83c0,1.14-0.63,1.83-1.66,1.83
				C77.29,26.42,76.66,25.73,76.66,24.59z M79.27,24.59c0-0.76-0.34-1.21-0.94-1.21c-0.6,0-0.94,0.45-0.94,1.21
				c0,0.77,0.34,1.21,0.94,1.21C78.93,25.81,79.27,25.36,79.27,24.59z"/>
			<path class="st14" d="M80.92,22.83h0.67v0.56h0.05c0.17-0.39,0.52-0.63,1.05-0.63c0.79,0,1.22,0.47,1.22,1.31v2.28h-0.69v-2.1
				c0-0.57-0.25-0.85-0.76-0.85c-0.51,0-0.84,0.34-0.84,0.89v2.06h-0.69V22.83z"/>
			<path class="st14" d="M87.83,21.96v0.89h0.76v0.59h-0.76v1.81c0,0.37,0.15,0.53,0.5,0.53c0.11,0,0.17-0.01,0.26-0.02v0.58
				c-0.11,0.02-0.24,0.04-0.38,0.04c-0.77,0-1.08-0.27-1.08-0.95v-1.99h-0.56v-0.59h0.56v-0.89H87.83z"/>
			<path class="st14" d="M89.54,21.46h0.69v1.94h0.05c0.17-0.39,0.54-0.63,1.07-0.63c0.75,0,1.21,0.48,1.21,1.31v2.27h-0.7v-2.1
				c0-0.56-0.26-0.85-0.75-0.85c-0.57,0-0.89,0.36-0.89,0.89v2.06h-0.69V21.46z"/>
			<path class="st14" d="M96.62,25.4c-0.16,0.63-0.72,1.02-1.53,1.02c-1.01,0-1.63-0.69-1.63-1.82c0-1.12,0.63-1.84,1.62-1.84
				c0.98,0,1.57,0.67,1.57,1.77v0.24h-2.49v0.04c0.02,0.62,0.38,1.01,0.94,1.01c0.42,0,0.71-0.15,0.84-0.43H96.62z M94.18,24.27
				h1.78c-0.02-0.55-0.35-0.91-0.87-0.91C94.58,23.36,94.22,23.72,94.18,24.27z"/>
		</g>
	</g>
</g>
</svg>
