<?xml version="1.0" encoding="utf-8"?>
<!-- Generator: Adobe Illustrator 23.0.1, SVG Export Plug-In . SVG Version: 6.00 Build 0)  -->
<svg version="1.1" id="Layer_1" xmlns="http://www.w3.org/2000/svg" xmlns:xlink="http://www.w3.org/1999/xlink" x="0px" y="0px"
	 viewBox="0 0 123 61" style="enable-background:new 0 0 123 61;" xml:space="preserve">
<style type="text/css">
	.st0{enable-background:new    ;}
	.st1{fill:#FFFFFF;}
	.st2{fill:#F1E293;}
	.st3{fill:#F39923;}
	.st4{fill:#F49223;}
	.st5{fill:#F3B31B;}
	.st6{fill:#F3C61E;}
	.st7{fill:#F8D40A;}
	.st8{fill:#F7DC04;}
	.st9{fill:#F8E200;}
	.st10{fill:#EFD663;}
	.st11{fill:#F49A23;}
	.st12{fill:#1798D5;}
</style>
<g>
	<g>
		<g class="st0">
			<path class="st1" d="M54.29,23.06c-0.4,0.38-1,0.58-1.81,0.58h-1.34v2.91h-0.91v-6.97h2.25c0.79,0,1.38,0.19,1.79,0.57
				c0.41,0.38,0.62,0.87,0.62,1.47C54.89,22.19,54.69,22.68,54.29,23.06z M53.6,22.55c0.24-0.22,0.36-0.53,0.36-0.94
				c0-0.86-0.49-1.29-1.48-1.29h-1.34v2.56h1.34C52.99,22.88,53.36,22.77,53.6,22.55z"/>
			<path class="st1" d="M57.02,26.28c-0.42-0.23-0.74-0.57-0.98-1c-0.24-0.43-0.35-0.93-0.35-1.5c0-0.56,0.12-1.05,0.36-1.49
				c0.24-0.43,0.58-0.76,1-0.99c0.42-0.23,0.89-0.35,1.41-0.35s0.99,0.12,1.41,0.35c0.42,0.23,0.75,0.56,1,0.98
				c0.24,0.43,0.37,0.92,0.37,1.49s-0.13,1.07-0.38,1.5s-0.59,0.76-1.02,1c-0.43,0.23-0.9,0.35-1.42,0.35
				C57.9,26.63,57.43,26.52,57.02,26.28z M59.33,25.6c0.29-0.15,0.52-0.38,0.69-0.69s0.27-0.68,0.27-1.12s-0.09-0.81-0.26-1.12
				s-0.4-0.54-0.68-0.68c-0.28-0.15-0.58-0.23-0.91-0.23c-0.33,0-0.64,0.08-0.92,0.23c-0.28,0.15-0.5,0.38-0.67,0.68
				s-0.25,0.68-0.25,1.12c0,0.45,0.08,0.82,0.25,1.13c0.16,0.31,0.38,0.54,0.65,0.69c0.27,0.15,0.57,0.22,0.9,0.22
				C58.74,25.83,59.04,25.76,59.33,25.6z"/>
			<path class="st1" d="M69.72,21.06l-1.71,5.48h-0.94l-1.32-4.35l-1.32,4.35h-0.94l-1.72-5.48h0.93l1.26,4.6l1.36-4.6h0.93
				l1.33,4.61l1.24-4.61H69.72z"/>
			<path class="st1" d="M75.59,24.14h-4.38c0.03,0.54,0.22,0.96,0.55,1.27c0.34,0.3,0.75,0.46,1.23,0.46c0.39,0,0.72-0.09,0.98-0.28
				s0.45-0.43,0.56-0.74h0.98c-0.15,0.53-0.44,0.96-0.88,1.29s-0.99,0.5-1.64,0.5c-0.52,0-0.99-0.12-1.4-0.35s-0.73-0.57-0.96-1
				s-0.35-0.93-0.35-1.5s0.11-1.06,0.34-1.49s0.54-0.75,0.96-0.98c0.41-0.23,0.88-0.35,1.42-0.35c0.52,0,0.98,0.11,1.38,0.34
				c0.4,0.23,0.71,0.54,0.92,0.94s0.33,0.84,0.33,1.34C75.62,23.77,75.61,23.95,75.59,24.14z M74.45,22.51
				c-0.15-0.25-0.36-0.44-0.63-0.57c-0.26-0.13-0.56-0.19-0.88-0.19c-0.46,0-0.85,0.15-1.18,0.44c-0.32,0.29-0.51,0.7-0.55,1.22
				h3.46C74.68,23.06,74.6,22.76,74.45,22.51z"/>
			<path class="st1" d="M78.42,21.22c0.3-0.17,0.66-0.26,1.08-0.26v0.94h-0.24c-1.02,0-1.53,0.55-1.53,1.66v2.98h-0.91v-5.48h0.91
				v0.89C77.89,21.64,78.12,21.4,78.42,21.22z"/>
			<path class="st1" d="M85.52,24.14h-4.38c0.03,0.54,0.22,0.96,0.56,1.27c0.34,0.3,0.75,0.46,1.22,0.46c0.39,0,0.72-0.09,0.99-0.28
				c0.26-0.18,0.45-0.43,0.55-0.74h0.98c-0.15,0.53-0.44,0.96-0.88,1.29c-0.44,0.33-0.99,0.5-1.64,0.5c-0.52,0-0.99-0.12-1.39-0.35
				c-0.41-0.23-0.73-0.57-0.97-1s-0.35-0.93-0.35-1.5s0.11-1.06,0.34-1.49s0.54-0.75,0.96-0.98c0.41-0.23,0.88-0.35,1.42-0.35
				c0.52,0,0.98,0.11,1.38,0.34c0.4,0.23,0.71,0.54,0.92,0.94c0.22,0.4,0.33,0.84,0.33,1.34C85.55,23.77,85.54,23.95,85.52,24.14z
				 M84.38,22.51c-0.15-0.25-0.36-0.44-0.63-0.57c-0.26-0.13-0.55-0.19-0.88-0.19c-0.46,0-0.85,0.15-1.17,0.44
				c-0.32,0.29-0.51,0.7-0.55,1.22h3.46C84.61,23.06,84.53,22.76,84.38,22.51z"/>
			<path class="st1" d="M86.75,22.31c0.23-0.42,0.54-0.75,0.93-0.98s0.84-0.35,1.33-0.35c0.43,0,0.82,0.1,1.19,0.29
				c0.37,0.2,0.65,0.46,0.84,0.78v-2.9h0.92v7.4h-0.92v-1.03c-0.18,0.33-0.45,0.6-0.8,0.81c-0.35,0.21-0.77,0.31-1.24,0.31
				c-0.49,0-0.93-0.12-1.33-0.36c-0.4-0.24-0.71-0.58-0.93-1.01c-0.23-0.43-0.34-0.93-0.34-1.48
				C86.41,23.22,86.52,22.73,86.75,22.31z M90.8,22.71c-0.17-0.31-0.39-0.54-0.67-0.71c-0.28-0.16-0.6-0.25-0.94-0.25
				s-0.65,0.08-0.93,0.24s-0.5,0.39-0.67,0.7c-0.17,0.31-0.25,0.67-0.25,1.08c0,0.42,0.08,0.79,0.25,1.09
				c0.17,0.31,0.39,0.55,0.67,0.71s0.59,0.25,0.93,0.25s0.65-0.08,0.94-0.25c0.28-0.16,0.51-0.4,0.67-0.71
				c0.17-0.31,0.25-0.67,0.25-1.08S90.97,23.02,90.8,22.71z"/>
			<path class="st1" d="M100.37,23.26c0.21,0.17,0.38,0.37,0.5,0.62c0.12,0.25,0.18,0.51,0.18,0.79c0,0.35-0.09,0.67-0.27,0.96
				c-0.18,0.28-0.44,0.51-0.79,0.67c-0.34,0.16-0.75,0.25-1.21,0.25h-2.6v-6.97h2.5c0.47,0,0.88,0.08,1.21,0.23
				c0.33,0.16,0.58,0.37,0.75,0.64c0.17,0.27,0.25,0.57,0.25,0.9c0,0.41-0.11,0.75-0.33,1.03c-0.22,0.27-0.52,0.46-0.88,0.58
				C99.92,22.99,100.16,23.1,100.37,23.26z M97.09,22.58h1.53c0.43,0,0.76-0.1,0.99-0.3c0.23-0.2,0.35-0.48,0.35-0.83
				s-0.12-0.63-0.35-0.83c-0.23-0.2-0.57-0.3-1.01-0.3h-1.51V22.58z M99.76,25.47c0.25-0.21,0.38-0.51,0.38-0.89
				c0-0.39-0.13-0.69-0.4-0.92s-0.62-0.33-1.07-0.33h-1.58v2.46h1.61C99.15,25.79,99.51,25.69,99.76,25.47z"/>
			<path class="st1" d="M107.03,21.06l-3.3,8.06h-0.94l1.08-2.64l-2.21-5.42h1.01l1.72,4.44l1.7-4.44H107.03z"/>
		</g>
	</g>
	<g>
		<g>
			<g>
				<g>
					<path id="Path_172_2_" class="st2" d="M28.56,26.61l1.33,1.68l6.91-7.41L28.56,26.61z"/>
					<path class="st3" d="M15.76,33.69l-6.24,2.93l6.7-1.51C16.02,34.65,15.87,34.18,15.76,33.69z"/>
					<path class="st4" d="M16.67,36.18l-5.59,7.69l7.03-6.19C17.57,37.25,17.08,36.74,16.67,36.18z"/>
					<path class="st5" d="M15.58,32.03c0-0.55,0.06-1.09,0.17-1.6L6.4,30.32l9.2,2.11C15.59,32.29,15.58,32.16,15.58,32.03z"/>
					<path class="st6" d="M16.9,27.7l-6.67-2.58l5.92,3.98C16.36,28.6,16.61,28.13,16.9,27.7z"/>
					<path class="st7" d="M19.5,25.3l-6.38-7.5l4.76,8.72C18.36,26.05,18.91,25.64,19.5,25.3z"/>
					<path class="st8" d="M22.12,24.4l-2.36-7.05l0.86,7.44C21.1,24.61,21.6,24.48,22.12,24.4z"/>
					<path class="st9" d="M25.6,24.64L26.44,15l-2.86,9.31C24.28,24.33,24.96,24.44,25.6,24.64z"/>
					<path class="st10" d="M26.58,25.03c0.48,0.23,0.94,0.5,1.36,0.82l3.29-6.96L26.58,25.03z"/>
					<g>
						<ellipse id="Ellipse_103_2_" class="st11" cx="23.84" cy="32.69" rx="2.82" ry="2.82"/>
						<path id="Subtraction_89_4_" class="st11" d="M18.58,35.37c-1.97-2.51-1.54-6.14,0.96-8.11s6.12-1.54,8.09,0.97
							c0.18,0.22,0.33,0.46,0.48,0.71c-1.97-2.51-5.59-2.94-8.09-0.96C17.77,29.73,17.16,32.88,18.58,35.37L18.58,35.37z"/>
						<path id="Subtraction_91_2_" class="st12" d="M27.19,48.73H21.5c1.16-1.34,1.92-3.42,2.09-5.69c0.21-2.83-0.57-5.51-1.99-6.84
							c0.6,0.25,1.24,0.37,1.89,0.37c1.59,0.02,3.09-0.75,3.99-2.07c-0.56,2.57-0.83,5.2-0.81,7.83
							C26.67,44.49,26.84,46.62,27.19,48.73L27.19,48.73z"/>
						<path id="Subtraction_89_3_" class="st5" d="M20.23,34.15c-1.36-1.67-1.06-4.08,0.66-5.39s4.22-1.02,5.58,0.64
							c0.12,0.15,0.23,0.31,0.33,0.47c-1.36-1.67-3.85-1.95-5.58-0.64C19.67,30.4,19.25,32.5,20.23,34.15L20.23,34.15z"/>
					</g>
				</g>
				<g>
					<g>
						<path class="st12" d="M37.94,38.71l-1.99,1.78c-0.81-0.72-1.55-1.07-2.21-1.07c-0.36,0-0.65,0.07-0.85,0.21
							c-0.2,0.14-0.31,0.31-0.31,0.51c0,0.15,0.07,0.3,0.19,0.43c0.13,0.13,0.45,0.31,0.96,0.53l1.18,0.53
							c1.24,0.55,2.1,1.11,2.56,1.67c0.46,0.57,0.7,1.24,0.7,2c0,1.02-0.42,1.87-1.26,2.55s-1.96,1.02-3.37,1.02
							c-1.87,0-3.37-0.65-4.49-1.96l1.98-1.93c0.38,0.39,0.82,0.71,1.33,0.95c0.51,0.24,0.96,0.36,1.35,0.36
							c0.43,0,0.77-0.09,1.03-0.27s0.39-0.39,0.39-0.63c0-0.44-0.47-0.87-1.4-1.3l-1.09-0.48c-2.08-0.93-3.12-2.1-3.12-3.51
							c0-0.91,0.39-1.68,1.17-2.32s1.78-0.96,3-0.96c0.83,0,1.62,0.16,2.35,0.49C36.8,37.63,37.42,38.1,37.94,38.71z"/>
						<path class="st12" d="M40.72,32.69h3.2v5.58c0.63-0.48,1.26-0.85,1.9-1.09c0.64-0.24,1.28-0.36,1.94-0.36
							c1.27,0,2.35,0.39,3.22,1.18c0.75,0.68,1.12,1.68,1.12,3v7.57h-3.18v-5.03c0-1.33-0.07-2.23-0.21-2.7s-0.38-0.82-0.73-1.05
							c-0.34-0.23-0.77-0.35-1.27-0.35c-0.65,0-1.21,0.19-1.68,0.58c-0.47,0.39-0.79,0.91-0.97,1.58c-0.09,0.34-0.14,1.13-0.14,2.36
							v4.6h-3.2V32.69z"/>
						<path class="st12" d="M54.46,37.11h2.76v1.44c0.3-0.57,0.7-1,1.19-1.3c0.5-0.29,1.04-0.44,1.63-0.44c0.42,0,0.85,0.1,1.31,0.3
							l-1,2.48c-0.38-0.17-0.69-0.25-0.93-0.25c-0.5,0-0.92,0.27-1.26,0.82s-0.51,1.62-0.51,3.22l0.01,0.56v4.64h-3.2V37.11z"/>
						<path class="st12" d="M72.43,37.11h3.22v11.46h-3.22v-1.21c-0.63,0.53-1.26,0.92-1.89,1.15c-0.63,0.24-1.32,0.35-2.06,0.35
							c-1.66,0-3.09-0.57-4.3-1.72c-1.21-1.15-1.82-2.58-1.82-4.28c0-1.77,0.59-3.22,1.76-4.35c1.17-1.13,2.59-1.7,4.27-1.7
							c0.77,0,1.49,0.13,2.17,0.39s1.3,0.65,1.87,1.17V37.11z M69.04,39.47c-1,0-1.82,0.31-2.48,0.94
							c-0.66,0.63-0.99,1.43-0.99,2.42s0.34,1.81,1.01,2.44c0.67,0.64,1.5,0.96,2.48,0.96c1.01,0,1.85-0.31,2.52-0.94
							c0.67-0.63,1-1.45,1-2.47c0-1-0.33-1.81-1-2.42C70.9,39.78,70.06,39.47,69.04,39.47z"/>
						<path class="st12" d="M88.39,37.11h3.22v11.46h-3.22v-1.21c-0.63,0.53-1.26,0.92-1.89,1.15c-0.63,0.24-1.32,0.35-2.06,0.35
							c-1.66,0-3.09-0.57-4.3-1.72c-1.21-1.15-1.82-2.58-1.82-4.28c0-1.77,0.59-3.22,1.76-4.35c1.17-1.13,2.59-1.7,4.27-1.7
							c0.77,0,1.49,0.13,2.17,0.39s1.3,0.65,1.87,1.17V37.11z M85,39.47c-1,0-1.82,0.31-2.48,0.94c-0.66,0.63-0.99,1.43-0.99,2.42
							s0.34,1.81,1.01,2.44c0.67,0.64,1.5,0.96,2.48,0.96c1.01,0,1.85-0.31,2.52-0.94c0.67-0.63,1-1.45,1-2.47c0-1-0.33-1.81-1-2.42
							C86.86,39.78,86.02,39.47,85,39.47z"/>
						<path class="st12" d="M94.89,32.69h3.22v9.15l4.75-4.73h4.05l-5.53,5.49l6.19,5.97h-4l-5.45-5.28v5.28H94.9V32.69H94.89z"/>
					</g>
				</g>
			</g>
		</g>
	</g>
</g>
</svg>
