<?xml version="1.0" encoding="utf-8"?>
<!-- Generator: Adobe Illustrator 23.0.1, SVG Export Plug-In . SVG Version: 6.00 Build 0)  -->
<svg version="1.1" id="Layer_1" xmlns="http://www.w3.org/2000/svg" xmlns:xlink="http://www.w3.org/1999/xlink" x="0px" y="0px"
	 viewBox="0 0 123 61" style="enable-background:new 0 0 123 61;" xml:space="preserve">
<style type="text/css">
	.st0{display:none;fill:url(#SVGID_1_);}
	.st1{fill:#FFFFFF;}
	.st2{font-family:'Poppins-Regular';}
	.st3{font-size:10px;}
	.st4{fill:#F1E293;}
	.st5{fill:#F39923;}
	.st6{fill:#F49223;}
	.st7{fill:#F3B31B;}
	.st8{fill:#F3C61E;}
	.st9{fill:#F8D40A;}
	.st10{fill:#F7DC04;}
	.st11{fill:#F8E200;}
	.st12{fill:#EFD663;}
	.st13{fill:#F49A23;}
	.st14{fill:#1798D5;}
	.st15{fill:#B6B7B7;}
	.st16{fill:#010101;}
	.st17{fill:#A7A6A6;}
	.st18{fill:#FFFFFF;stroke:#FFFFFF;stroke-width:0.1802;stroke-miterlimit:10;}
	.st19{fill:url(#SVGID_2_);}
	.st20{fill:url(#SVGID_3_);}
	.st21{fill:url(#SVGID_4_);}
	.st22{fill:url(#SVGID_5_);}
	.st23{opacity:0.2;fill:#010101;enable-background:new    ;}
	.st24{opacity:0.12;fill:#010101;enable-background:new    ;}
	.st25{opacity:0.25;fill:#FFFFFF;enable-background:new    ;}
</style>
<g>
	<g>
		<text transform="matrix(1 0 0 1 49.46 26.5439)" class="st1 st2 st3">Powered By </text>
	</g>
	<g>
		<g>
			<g>
				<g>
					<path id="Path_172_2_" class="st4" d="M28.56,26.61l1.33,1.68l6.91-7.41L28.56,26.61z"/>
					<path class="st5" d="M15.76,33.69l-6.24,2.93l6.7-1.51C16.02,34.65,15.87,34.18,15.76,33.69z"/>
					<path class="st6" d="M16.67,36.18l-5.59,7.69l7.03-6.19C17.57,37.25,17.08,36.74,16.67,36.18z"/>
					<path class="st7" d="M15.58,32.03c0-0.55,0.06-1.09,0.17-1.6l-9.35-0.11l9.2,2.11C15.59,32.29,15.58,32.16,15.58,32.03z"/>
					<path class="st8" d="M16.9,27.7l-6.67-2.58l5.92,3.98C16.36,28.6,16.61,28.13,16.9,27.7z"/>
					<path class="st9" d="M19.5,25.3l-6.38-7.5l4.76,8.72C18.36,26.05,18.91,25.64,19.5,25.3z"/>
					<path class="st10" d="M22.12,24.4l-2.36-7.05l0.86,7.44C21.1,24.61,21.6,24.48,22.12,24.4z"/>
					<path class="st11" d="M25.6,24.64L26.44,15l-2.86,9.31C24.28,24.33,24.96,24.44,25.6,24.64z"/>
					<path class="st12" d="M26.58,25.03c0.48,0.23,0.94,0.5,1.36,0.82l3.29-6.96L26.58,25.03z"/>
					<g>
						
							<ellipse id="Ellipse_103_2_" transform="matrix(0.9807 -0.1957 0.1957 0.9807 -5.937 5.2979)" class="st13" cx="23.84" cy="32.69" rx="2.82" ry="2.82"/>
						<path id="Subtraction_89_4_" class="st13" d="M18.58,35.37c-1.97-2.51-1.54-6.14,0.96-8.11c2.5-1.97,6.12-1.54,8.09,0.97
							c0.18,0.22,0.33,0.46,0.48,0.71c-1.97-2.51-5.59-2.94-8.09-0.96C17.77,29.73,17.16,32.88,18.58,35.37L18.58,35.37z"/>
						<path id="Subtraction_91_2_" class="st14" d="M27.19,48.73H21.5c1.16-1.34,1.92-3.42,2.09-5.69c0.21-2.83-0.57-5.51-1.99-6.84
							c0.6,0.25,1.24,0.37,1.89,0.37c1.59,0.02,3.09-0.75,3.99-2.07c-0.56,2.57-0.83,5.2-0.81,7.83
							C26.67,44.49,26.84,46.62,27.19,48.73L27.19,48.73z"/>
						<path id="Subtraction_89_3_" class="st7" d="M20.23,34.15c-1.36-1.67-1.06-4.08,0.66-5.39c1.72-1.31,4.22-1.02,5.58,0.64
							c0.12,0.15,0.23,0.31,0.33,0.47c-1.36-1.67-3.85-1.95-5.58-0.64C19.67,30.4,19.25,32.5,20.23,34.15L20.23,34.15z"/>
					</g>
				</g>
				<g>
					<g>
						<path class="st14" d="M37.94,38.71l-1.99,1.78c-0.81-0.72-1.55-1.07-2.21-1.07c-0.36,0-0.65,0.07-0.85,0.21
							c-0.2,0.14-0.31,0.31-0.31,0.51c0,0.15,0.07,0.3,0.19,0.43c0.13,0.13,0.45,0.31,0.96,0.53l1.18,0.53
							c1.24,0.55,2.1,1.11,2.56,1.67c0.46,0.57,0.7,1.24,0.7,2c0,1.02-0.42,1.87-1.26,2.55c-0.84,0.68-1.96,1.02-3.37,1.02
							c-1.87,0-3.37-0.65-4.49-1.96l1.98-1.93c0.38,0.39,0.82,0.71,1.33,0.95c0.51,0.24,0.96,0.36,1.35,0.36
							c0.43,0,0.77-0.09,1.03-0.27c0.26-0.18,0.39-0.39,0.39-0.63c0-0.44-0.47-0.87-1.4-1.3l-1.09-0.48
							c-2.08-0.93-3.12-2.1-3.12-3.51c0-0.91,0.39-1.68,1.17-2.32c0.78-0.64,1.78-0.96,3-0.96c0.83,0,1.62,0.16,2.35,0.49
							C36.8,37.63,37.42,38.1,37.94,38.71z"/>
						<path class="st14" d="M40.72,32.69h3.2v5.58c0.63-0.48,1.26-0.85,1.9-1.09c0.64-0.24,1.28-0.36,1.94-0.36
							c1.27,0,2.35,0.39,3.22,1.18c0.75,0.68,1.12,1.68,1.12,3v7.57h-3.18v-5.03c0-1.33-0.07-2.23-0.21-2.7
							c-0.14-0.47-0.38-0.82-0.73-1.05c-0.34-0.23-0.77-0.35-1.27-0.35c-0.65,0-1.21,0.19-1.68,0.58c-0.47,0.39-0.79,0.91-0.97,1.58
							c-0.09,0.34-0.14,1.13-0.14,2.36v4.6h-3.2V32.69z"/>
						<path class="st14" d="M54.46,37.11h2.76v1.44c0.3-0.57,0.7-1,1.19-1.3c0.5-0.29,1.04-0.44,1.63-0.44c0.42,0,0.85,0.1,1.31,0.3
							l-1,2.48c-0.38-0.17-0.69-0.25-0.93-0.25c-0.5,0-0.92,0.27-1.26,0.82c-0.34,0.55-0.51,1.62-0.51,3.22l0.01,0.56v4.64h-3.2
							V37.11z"/>
						<path class="st14" d="M72.43,37.11h3.22v11.46h-3.22v-1.21c-0.63,0.53-1.26,0.92-1.89,1.15c-0.63,0.24-1.32,0.35-2.06,0.35
							c-1.66,0-3.09-0.57-4.3-1.72c-1.21-1.15-1.82-2.58-1.82-4.28c0-1.77,0.59-3.22,1.76-4.35c1.17-1.13,2.59-1.7,4.27-1.7
							c0.77,0,1.49,0.13,2.17,0.39c0.68,0.26,1.3,0.65,1.87,1.17V37.11z M69.04,39.47c-1,0-1.82,0.31-2.48,0.94
							c-0.66,0.63-0.99,1.43-0.99,2.42c0,0.99,0.34,1.81,1.01,2.44c0.67,0.64,1.5,0.96,2.48,0.96c1.01,0,1.85-0.31,2.52-0.94
							c0.67-0.63,1-1.45,1-2.47c0-1-0.33-1.81-1-2.42C70.9,39.78,70.06,39.47,69.04,39.47z"/>
						<path class="st14" d="M88.39,37.11h3.22v11.46h-3.22v-1.21c-0.63,0.53-1.26,0.92-1.89,1.15c-0.63,0.24-1.32,0.35-2.06,0.35
							c-1.66,0-3.09-0.57-4.3-1.72c-1.21-1.15-1.82-2.58-1.82-4.28c0-1.77,0.59-3.22,1.76-4.35c1.17-1.13,2.59-1.7,4.27-1.7
							c0.77,0,1.49,0.13,2.17,0.39c0.68,0.26,1.3,0.65,1.87,1.17V37.11z M85,39.47c-1,0-1.82,0.31-2.48,0.94
							c-0.66,0.63-0.99,1.43-0.99,2.42c0,0.99,0.34,1.81,1.01,2.44c0.67,0.64,1.5,0.96,2.48,0.96c1.01,0,1.85-0.31,2.52-0.94
							c0.67-0.63,1-1.45,1-2.47c0-1-0.33-1.81-1-2.42C86.86,39.78,86.02,39.47,85,39.47z"/>
						<path class="st14" d="M94.89,32.69h3.22v9.15l4.75-4.73h4.05l-5.53,5.49l6.19,5.97h-4l-5.45-5.28v5.28h-3.22V32.69z"/>
					</g>
				</g>
			</g>
		</g>
	</g>
</g>
</svg>
