<?xml version="1.0" encoding="utf-8"?>
<!-- Generator: Adobe Illustrator 23.0.1, SVG Export Plug-In . SVG Version: 6.00 Build 0)  -->
<svg version="1.1" id="Layer_1" xmlns="http://www.w3.org/2000/svg" xmlns:xlink="http://www.w3.org/1999/xlink" x="0px" y="0px"
	 viewBox="0 0 123 61" style="enable-background:new 0 0 123 61;" xml:space="preserve">
<style type="text/css">
	.st0{display:none;fill:url(#SVGID_1_);}
	.st1{fill:#F1E293;}
	.st2{fill:#F39923;}
	.st3{fill:#F49223;}
	.st4{fill:#F3B31B;}
	.st5{fill:#F3C61E;}
	.st6{fill:#F8D40A;}
	.st7{fill:#F7DC04;}
	.st8{fill:#F8E200;}
	.st9{fill:#EFD663;}
	.st10{fill:#F49A23;}
	.st11{fill:#1798D5;}
	.st12{fill:#B6B7B7;}
	.st13{fill:#010101;}
	.st14{fill:#FFFFFF;}
	.st15{fill:#A7A6A6;}
	.st16{fill:#FFFFFF;stroke:#FFFFFF;stroke-width:0.1802;stroke-miterlimit:10;}
	.st17{fill:url(#SVGID_2_);}
	.st18{fill:url(#SVGID_3_);}
	.st19{fill:url(#SVGID_4_);}
	.st20{fill:url(#SVGID_5_);}
	.st21{opacity:0.2;fill:#010101;enable-background:new    ;}
	.st22{opacity:0.12;fill:#010101;enable-background:new    ;}
	.st23{opacity:0.25;fill:#FFFFFF;enable-background:new    ;}
</style>
<g>
	<g>
		<path d="M111.2,46.04H13.48c-2.15,0-3.91-1.76-3.91-3.91V18.68c0-2.15,1.76-3.91,3.91-3.91h97.72c2.15,0,3.91,1.76,3.91,3.91
			v23.45C115.11,44.28,113.35,46.04,111.2,46.04z"/>
	</g>
	<g>
		<g>
			<path class="st15" d="M111.2,15.4c1.81,0,3.28,1.47,3.28,3.28v23.45c0,1.81-1.47,3.28-3.28,3.28H13.48
				c-1.81,0-3.28-1.47-3.28-3.28V18.68c0-1.81,1.47-3.28,3.28-3.28H111.2 M111.2,14.77H13.48c-2.15,0-3.91,1.76-3.91,3.91v23.45
				c0,2.15,1.76,3.91,3.91,3.91h97.72c2.15,0,3.91-1.76,3.91-3.91V18.68C115.11,16.53,113.35,14.77,111.2,14.77L111.2,14.77z"/>
		</g>
	</g>
	<g>
		<path class="st16" d="M46.64,22.78c0,0.66-0.19,1.18-0.58,1.57c-0.44,0.46-1.02,0.69-1.72,0.69c-0.68,0-1.25-0.23-1.73-0.7
			c-0.47-0.47-0.71-1.05-0.71-1.75c0-0.69,0.24-1.28,0.71-1.75c0.47-0.47,1.05-0.7,1.73-0.7c0.34,0,0.66,0.07,0.96,0.2
			c0.31,0.13,0.55,0.31,0.73,0.52l-0.41,0.41c-0.31-0.37-0.74-0.56-1.28-0.56c-0.49,0-0.92,0.17-1.28,0.52
			c-0.36,0.35-0.54,0.8-0.54,1.35s0.18,1.01,0.54,1.35c0.36,0.35,0.79,0.52,1.28,0.52c0.52,0,0.96-0.17,1.31-0.52
			c0.23-0.23,0.36-0.54,0.39-0.95h-1.7v-0.56h2.27C46.63,22.55,46.64,22.67,46.64,22.78z"/>
		<path class="st16" d="M50.24,20.82h-2.14v1.49h1.93v0.56h-1.93v1.49h2.14v0.58H47.5v-4.69h2.74V20.82z"/>
		<path class="st16" d="M52.78,24.93h-0.6v-4.11h-1.31v-0.58h3.22v0.58h-1.31V24.93z"/>
		<path class="st16" d="M56.43,24.93v-4.69h0.6v4.69H56.43z"/>
		<path class="st16" d="M59.7,24.93h-0.6v-4.11h-1.31v-0.58h3.22v0.58H59.7V24.93z"/>
		<path class="st16" d="M67.11,24.33c-0.46,0.47-1.03,0.71-1.72,0.71c-0.69,0-1.26-0.24-1.72-0.71c-0.46-0.47-0.69-1.05-0.69-1.74
			c0-0.69,0.23-1.27,0.69-1.74c0.46-0.47,1.03-0.71,1.72-0.71c0.68,0,1.25,0.24,1.72,0.71c0.46,0.48,0.69,1.05,0.69,1.74
			C67.8,23.28,67.57,23.85,67.11,24.33z M64.12,23.94c0.35,0.35,0.77,0.53,1.27,0.53s0.93-0.18,1.27-0.53
			c0.35-0.35,0.52-0.8,0.52-1.35c0-0.55-0.17-0.99-0.52-1.35c-0.35-0.35-0.77-0.53-1.27-0.53s-0.93,0.18-1.27,0.53
			c-0.35,0.35-0.52,0.8-0.52,1.35C63.6,23.14,63.77,23.58,64.12,23.94z"/>
		<path class="st16" d="M68.65,24.93v-4.69h0.73l2.28,3.65h0.03l-0.03-0.9v-2.74h0.6v4.69h-0.63l-2.38-3.83h-0.03l0.03,0.9v2.92
			H68.65z"/>
	</g>
	<path class="st14" d="M62.83,31.78c-1.84,0-3.34,1.4-3.34,3.32c0,1.91,1.5,3.32,3.34,3.32c1.84,0,3.34-1.41,3.34-3.32
		C66.17,33.17,64.67,31.78,62.83,31.78z M62.83,37.12c-1.01,0-1.88-0.83-1.88-2.02c0-1.2,0.87-2.02,1.88-2.02s1.88,0.82,1.88,2.02
		C64.71,36.29,63.84,37.12,62.83,37.12z M55.55,31.78c-1.84,0-3.34,1.4-3.34,3.32c0,1.91,1.5,3.32,3.34,3.32
		c1.84,0,3.34-1.41,3.34-3.32C58.89,33.17,57.39,31.78,55.55,31.78z M55.55,37.12c-1.01,0-1.88-0.83-1.88-2.02
		c0-1.2,0.87-2.02,1.88-2.02c1.01,0,1.88,0.82,1.88,2.02C57.43,36.29,56.56,37.12,55.55,37.12z M46.89,32.8v1.41h3.38
		c-0.1,0.79-0.37,1.37-0.77,1.78c-0.49,0.49-1.26,1.03-2.61,1.03c-2.08,0-3.7-1.68-3.7-3.75s1.62-3.75,3.7-3.75
		c1.12,0,1.94,0.44,2.54,1.01l0.99-0.99c-0.84-0.81-1.96-1.42-3.54-1.42c-2.85,0-5.24,2.32-5.24,5.16c0,2.85,2.39,5.16,5.24,5.16
		c1.54,0,2.7-0.5,3.6-1.45c0.93-0.93,1.22-2.24,1.22-3.3c0-0.33-0.03-0.63-0.08-0.88H46.89z M82.31,33.89
		c-0.28-0.74-1.12-2.12-2.85-2.12c-1.71,0-3.14,1.35-3.14,3.32c0,1.86,1.41,3.32,3.3,3.32c1.52,0,2.41-0.93,2.77-1.47l-1.13-0.76
		c-0.38,0.55-0.89,0.92-1.64,0.92c-0.74,0-1.27-0.34-1.61-1.01l4.45-1.84L82.31,33.89z M77.78,35c-0.04-1.28,0.99-1.94,1.74-1.94
		c0.58,0,1.07,0.29,1.23,0.71L77.78,35z M74.16,38.22h1.46v-9.77h-1.46V38.22z M71.77,32.52h-0.05c-0.33-0.39-0.96-0.74-1.75-0.74
		c-1.66,0-3.19,1.46-3.19,3.34c0,1.86,1.52,3.31,3.19,3.31c0.79,0,1.42-0.35,1.75-0.76h0.05v0.48c0,1.27-0.68,1.95-1.78,1.95
		c-0.89,0-1.45-0.64-1.67-1.18l-1.27,0.53c0.37,0.88,1.33,1.96,2.95,1.96c1.71,0,3.16-1.01,3.16-3.46v-5.97h-1.39V32.52z
		 M70.1,37.12c-1.01,0-1.85-0.84-1.85-2c0-1.17,0.84-2.03,1.85-2.03c0.99,0,1.78,0.86,1.78,2.03C71.87,36.27,71.09,37.12,70.1,37.12
		z M89.16,28.45h-3.5v9.77h1.46v-3.7h2.04c1.62,0,3.21-1.17,3.21-3.04C92.36,29.62,90.77,28.45,89.16,28.45z M89.19,33.16h-2.07
		v-3.35h2.07c1.09,0,1.71,0.9,1.71,1.67C90.9,32.24,90.28,33.16,89.19,33.16z M98.21,31.76c-1.06,0-2.15,0.47-2.6,1.5l1.3,0.54
		c0.28-0.54,0.79-0.72,1.33-0.72c0.75,0,1.52,0.45,1.53,1.26v0.1c-0.26-0.15-0.83-0.38-1.52-0.38c-1.4,0-2.82,0.77-2.82,2.2
		c0,1.31,1.14,2.15,2.43,2.15c0.98,0,1.52-0.44,1.86-0.96h0.05v0.75h1.41v-3.75C101.18,32.73,99.88,31.76,98.21,31.76z M98.03,37.11
		c-0.48,0-1.14-0.24-1.14-0.83c0-0.75,0.83-1.04,1.55-1.04c0.64,0,0.94,0.14,1.33,0.33C99.65,36.47,98.88,37.11,98.03,37.11z
		 M106.31,31.97l-1.67,4.24h-0.05l-1.74-4.24h-1.57l2.6,5.92l-1.48,3.29h1.52l4.01-9.22H106.31z M93.17,38.22h1.46v-9.77h-1.46
		V38.22z"/>
	<g>
		
			<linearGradient id="SVGID_1_" gradientUnits="userSpaceOnUse" x1="26.6119" y1="-513.5809" x2="13.4923" y2="-526.7005" gradientTransform="matrix(1 0 0 -1 0 -492)">
			<stop  offset="0" style="stop-color:#4998D3"/>
			<stop  offset="6.574450e-03" style="stop-color:#4A99D3"/>
			<stop  offset="0.2601" style="stop-color:#42BAEB"/>
			<stop  offset="0.5122" style="stop-color:#41C7F2"/>
			<stop  offset="0.7604" style="stop-color:#56C9E9"/>
			<stop  offset="1" style="stop-color:#5BCAE8"/>
		</linearGradient>
		<path style="fill:url(#SVGID_1_);" d="M17.73,20.66c-0.23,0.24-0.36,0.61-0.36,1.1v17.29c0,0.48,0.13,0.86,0.36,1.1l0.06,0.06
			l9.69-9.68v-0.11v-0.11l-9.69-9.69L17.73,20.66z"/>
		
			<linearGradient id="SVGID_2_" gradientUnits="userSpaceOnUse" x1="36.0199" y1="-522.4082" x2="17.1041" y2="-522.4082" gradientTransform="matrix(1 0 0 -1 0 -492)">
			<stop  offset="0" style="stop-color:#FEE000"/>
			<stop  offset="0.4087" style="stop-color:#FEBD11"/>
			<stop  offset="0.7754" style="stop-color:#FAA51A"/>
			<stop  offset="1" style="stop-color:#F99C1C"/>
		</linearGradient>
		<path class="st17" d="M30.7,33.75l-3.23-3.23v-0.11v-0.11l3.23-3.23l0.07,0.04l3.82,2.17c1.09,0.62,1.09,1.64,0,2.26l-3.82,2.17
			L30.7,33.75z"/>
		
			<linearGradient id="SVGID_3_" gradientUnits="userSpaceOnUse" x1="28.9784" y1="-524.202" x2="11.1872" y2="-541.9932" gradientTransform="matrix(1 0 0 -1 0 -492)">
			<stop  offset="0" style="stop-color:#EF4049"/>
			<stop  offset="1" style="stop-color:#C31E63"/>
		</linearGradient>
		<path class="st18" d="M30.77,33.71l-3.3-3.3l-9.74,9.74c0.36,0.38,0.95,0.43,1.62,0.05L30.77,33.71"/>
		
			<linearGradient id="SVGID_4_" gradientUnits="userSpaceOnUse" x1="15.2746" y1="-506.9099" x2="23.2192" y2="-514.8544" gradientTransform="matrix(1 0 0 -1 0 -492)">
			<stop  offset="0" style="stop-color:#32A072"/>
			<stop  offset="0.0685" style="stop-color:#2DA771"/>
			<stop  offset="0.4762" style="stop-color:#4BBA71"/>
			<stop  offset="0.8009" style="stop-color:#5EBD6B"/>
			<stop  offset="1" style="stop-color:#66BE69"/>
		</linearGradient>
		<path class="st19" d="M30.77,27.11l-11.42-6.49c-0.67-0.38-1.26-0.33-1.62,0.05l9.74,9.74L30.77,27.11z"/>
		<g>
			<path class="st21" d="M30.7,33.64l-11.35,6.45c-0.63,0.36-1.2,0.34-1.57,0.01l0,0l-0.06,0.06l0,0l0.06,0.06l0,0
				c0.36,0.33,0.93,0.35,1.57-0.01l11.42-6.49L30.7,33.64z"/>
			<path class="st22" d="M17.73,40.04c-0.23-0.24-0.36-0.61-0.36-1.1v0.11c0,0.48,0.13,0.86,0.36,1.1l0.06-0.06L17.73,40.04z"/>
		</g>
		<path class="st22" d="M34.6,31.42l-3.9,2.21l0.07,0.07l3.82-2.17c0.55-0.31,0.82-0.72,0.82-1.13l0,0
			C35.37,30.78,35.09,31.14,34.6,31.42z"/>
		<path class="st23" d="M19.35,20.73l15.24,8.66c0.5,0.28,0.77,0.64,0.82,1.01l0,0c0-0.41-0.27-0.82-0.82-1.13l-15.24-8.66
			c-1.09-0.62-1.99-0.11-1.99,1.15v0.11C17.37,20.63,18.26,20.11,19.35,20.73z"/>
	</g>
</g>
</svg>
